<mxfile host="app.diagrams.net" modified="2020-10-31T21:07:00.026Z" agent="5.0 (Windows NT 10.0; Win64; x64) AppleWebKit/537.36 (KHTML, like Gecko) Chrome/86.0.4240.111 Safari/537.36" etag="3JfPXosPds-MvUeY_Xr8" version="13.8.8" type="github">
  <diagram name="Page-1" id="9f46799a-70d6-7492-0946-bef42562c5a5">
    <mxGraphModel dx="1673" dy="1746" grid="1" gridSize="10" guides="1" tooltips="1" connect="1" arrows="1" fold="1" page="1" pageScale="1" pageWidth="1100" pageHeight="850" background="#ffffff" math="0" shadow="0">
      <root>
        <mxCell id="0" />
        <mxCell id="1" parent="0" />
        <mxCell id="ADOGvdhmfN3bZAimNRa--12" value="Tournament" style="swimlane;fontStyle=0;childLayout=stackLayout;horizontal=1;startSize=26;fillColor=none;horizontalStack=0;resizeParent=1;resizeParentMax=0;resizeLast=0;collapsible=1;marginBottom=0;" vertex="1" parent="1">
          <mxGeometry x="880" y="250" width="140" height="52" as="geometry" />
        </mxCell>
        <mxCell id="ADOGvdhmfN3bZAimNRa--13" value="type: &quot;tournament&quot;" style="text;strokeColor=none;fillColor=none;align=left;verticalAlign=top;spacingLeft=4;spacingRight=4;overflow=hidden;rotatable=0;points=[[0,0.5],[1,0.5]];portConstraint=eastwest;" vertex="1" parent="ADOGvdhmfN3bZAimNRa--12">
          <mxGeometry y="26" width="140" height="26" as="geometry" />
        </mxCell>
        <mxCell id="-_pgTqp3qG2hkj3o-jc9-15" value="" style="endArrow=block;endSize=16;endFill=0;html=1;exitX=0.5;exitY=0;exitDx=0;exitDy=0;entryX=0.5;entryY=1.015;entryDx=0;entryDy=0;entryPerimeter=0;" parent="1" target="NWaXI-73P_ARyc7S3DBA-15" edge="1">
          <mxGeometry width="160" relative="1" as="geometry">
            <mxPoint x="110" y="250" as="sourcePoint" />
            <mxPoint x="270" y="210" as="targetPoint" />
            <Array as="points">
              <mxPoint x="110" y="190" />
              <mxPoint x="270" y="190" />
            </Array>
          </mxGeometry>
        </mxCell>
        <mxCell id="-_pgTqp3qG2hkj3o-jc9-16" value="" style="endArrow=none;html=1;exitX=0.5;exitY=0;exitDx=0;exitDy=0;" parent="1" edge="1">
          <mxGeometry width="50" height="50" relative="1" as="geometry">
            <mxPoint x="270" y="250" as="sourcePoint" />
            <mxPoint x="270" y="180" as="targetPoint" />
          </mxGeometry>
        </mxCell>
        <mxCell id="-_pgTqp3qG2hkj3o-jc9-17" value="" style="endArrow=none;html=1;exitX=0.5;exitY=0;exitDx=0;exitDy=0;" parent="1" edge="1">
          <mxGeometry width="50" height="50" relative="1" as="geometry">
            <mxPoint x="430" y="250" as="sourcePoint" />
            <mxPoint x="270" y="180" as="targetPoint" />
            <Array as="points">
              <mxPoint x="430" y="190" />
              <mxPoint x="270" y="190" />
            </Array>
          </mxGeometry>
        </mxCell>
        <mxCell id="-_pgTqp3qG2hkj3o-jc9-1" value="User" style="swimlane;fontStyle=0;childLayout=stackLayout;horizontal=1;startSize=26;fillColor=none;horizontalStack=0;resizeParent=1;resizeParentMax=0;resizeLast=0;collapsible=1;marginBottom=0;" parent="1" vertex="1">
          <mxGeometry x="200" y="-50" width="140" height="156" as="geometry">
            <mxRectangle x="200" y="30" width="90" height="26" as="alternateBounds" />
          </mxGeometry>
        </mxCell>
        <mxCell id="-_pgTqp3qG2hkj3o-jc9-6" value="first name" style="text;strokeColor=none;fillColor=none;align=left;verticalAlign=top;spacingLeft=4;spacingRight=4;overflow=hidden;rotatable=0;points=[[0,0.5],[1,0.5]];portConstraint=eastwest;" parent="-_pgTqp3qG2hkj3o-jc9-1" vertex="1">
          <mxGeometry y="26" width="140" height="26" as="geometry" />
        </mxCell>
        <mxCell id="ADOGvdhmfN3bZAimNRa--1" value="last name" style="text;strokeColor=none;fillColor=none;align=left;verticalAlign=top;spacingLeft=4;spacingRight=4;overflow=hidden;rotatable=0;points=[[0,0.5],[1,0.5]];portConstraint=eastwest;" vertex="1" parent="-_pgTqp3qG2hkj3o-jc9-1">
          <mxGeometry y="52" width="140" height="26" as="geometry" />
        </mxCell>
        <mxCell id="-_pgTqp3qG2hkj3o-jc9-7" value="login" style="text;strokeColor=none;fillColor=none;align=left;verticalAlign=top;spacingLeft=4;spacingRight=4;overflow=hidden;rotatable=0;points=[[0,0.5],[1,0.5]];portConstraint=eastwest;" parent="-_pgTqp3qG2hkj3o-jc9-1" vertex="1">
          <mxGeometry y="78" width="140" height="26" as="geometry" />
        </mxCell>
        <mxCell id="-_pgTqp3qG2hkj3o-jc9-8" value="password" style="text;strokeColor=none;fillColor=none;align=left;verticalAlign=top;spacingLeft=4;spacingRight=4;overflow=hidden;rotatable=0;points=[[0,0.5],[1,0.5]];portConstraint=eastwest;" parent="-_pgTqp3qG2hkj3o-jc9-1" vertex="1">
          <mxGeometry y="104" width="140" height="26" as="geometry" />
        </mxCell>
        <mxCell id="NWaXI-73P_ARyc7S3DBA-15" value="role" style="text;strokeColor=none;fillColor=none;align=left;verticalAlign=top;spacingLeft=4;spacingRight=4;overflow=hidden;rotatable=0;points=[[0,0.5],[1,0.5]];portConstraint=eastwest;" parent="-_pgTqp3qG2hkj3o-jc9-1" vertex="1">
          <mxGeometry y="130" width="140" height="26" as="geometry" />
        </mxCell>
        <mxCell id="-_pgTqp3qG2hkj3o-jc9-22" value="" style="endArrow=diamondThin;endFill=1;endSize=24;html=1;entryX=0;entryY=0.5;entryDx=0;entryDy=0;exitX=0.5;exitY=1;exitDx=0;exitDy=0;" parent="1" target="-_pgTqp3qG2hkj3o-jc9-18" edge="1">
          <mxGeometry width="160" relative="1" as="geometry">
            <mxPoint x="110" y="302" as="sourcePoint" />
            <mxPoint x="400" y="380" as="targetPoint" />
            <Array as="points">
              <mxPoint x="110" y="499" />
            </Array>
          </mxGeometry>
        </mxCell>
        <mxCell id="-_pgTqp3qG2hkj3o-jc9-23" value="0..M" style="text;html=1;strokeColor=none;fillColor=none;align=center;verticalAlign=middle;whiteSpace=wrap;rounded=0;" parent="1" vertex="1">
          <mxGeometry x="130" y="460" width="40" height="20" as="geometry" />
        </mxCell>
        <mxCell id="-_pgTqp3qG2hkj3o-jc9-24" value="0..N" style="text;html=1;strokeColor=none;fillColor=none;align=center;verticalAlign=middle;whiteSpace=wrap;rounded=0;" parent="1" vertex="1">
          <mxGeometry x="110" y="310" width="40" height="20" as="geometry" />
        </mxCell>
        <mxCell id="-_pgTqp3qG2hkj3o-jc9-25" value="" style="endArrow=none;html=1;edgeStyle=orthogonalEdgeStyle;entryX=0.5;entryY=1;entryDx=0;entryDy=0;exitX=0.5;exitY=0;exitDx=0;exitDy=0;" parent="1" source="-_pgTqp3qG2hkj3o-jc9-18" edge="1">
          <mxGeometry relative="1" as="geometry">
            <mxPoint x="350" y="410" as="sourcePoint" />
            <mxPoint x="270" y="302" as="targetPoint" />
            <Array as="points">
              <mxPoint x="270" y="440" />
              <mxPoint x="270" y="440" />
            </Array>
          </mxGeometry>
        </mxCell>
        <mxCell id="-_pgTqp3qG2hkj3o-jc9-26" value="1" style="edgeLabel;resizable=0;html=1;align=left;verticalAlign=bottom;" parent="-_pgTqp3qG2hkj3o-jc9-25" connectable="0" vertex="1">
          <mxGeometry x="-1" relative="1" as="geometry" />
        </mxCell>
        <mxCell id="-_pgTqp3qG2hkj3o-jc9-27" value="0..1" style="edgeLabel;resizable=0;html=1;align=right;verticalAlign=bottom;" parent="-_pgTqp3qG2hkj3o-jc9-25" connectable="0" vertex="1">
          <mxGeometry x="1" relative="1" as="geometry">
            <mxPoint x="20" y="18.03" as="offset" />
          </mxGeometry>
        </mxCell>
        <mxCell id="-_pgTqp3qG2hkj3o-jc9-28" value="Event" style="swimlane;fontStyle=0;childLayout=stackLayout;horizontal=1;startSize=26;fillColor=none;horizontalStack=0;resizeParent=1;resizeParentMax=0;resizeLast=0;collapsible=1;marginBottom=0;" parent="1" vertex="1">
          <mxGeometry x="720" y="-50" width="140" height="208" as="geometry" />
        </mxCell>
        <mxCell id="-_pgTqp3qG2hkj3o-jc9-29" value="name" style="text;strokeColor=none;fillColor=none;align=left;verticalAlign=top;spacingLeft=4;spacingRight=4;overflow=hidden;rotatable=0;points=[[0,0.5],[1,0.5]];portConstraint=eastwest;" parent="-_pgTqp3qG2hkj3o-jc9-28" vertex="1">
          <mxGeometry y="26" width="140" height="26" as="geometry" />
        </mxCell>
        <mxCell id="-_pgTqp3qG2hkj3o-jc9-30" value="type" style="text;strokeColor=none;fillColor=none;align=left;verticalAlign=top;spacingLeft=4;spacingRight=4;overflow=hidden;rotatable=0;points=[[0,0.5],[1,0.5]];portConstraint=eastwest;" parent="-_pgTqp3qG2hkj3o-jc9-28" vertex="1">
          <mxGeometry y="52" width="140" height="26" as="geometry" />
        </mxCell>
        <mxCell id="ADOGvdhmfN3bZAimNRa--16" value="description" style="text;strokeColor=none;fillColor=none;align=left;verticalAlign=top;spacingLeft=4;spacingRight=4;overflow=hidden;rotatable=0;points=[[0,0.5],[1,0.5]];portConstraint=eastwest;" vertex="1" parent="-_pgTqp3qG2hkj3o-jc9-28">
          <mxGeometry y="78" width="140" height="26" as="geometry" />
        </mxCell>
        <mxCell id="-_pgTqp3qG2hkj3o-jc9-31" value="participants" style="text;strokeColor=none;fillColor=none;align=left;verticalAlign=top;spacingLeft=4;spacingRight=4;overflow=hidden;rotatable=0;points=[[0,0.5],[1,0.5]];portConstraint=eastwest;" parent="-_pgTqp3qG2hkj3o-jc9-28" vertex="1">
          <mxGeometry y="104" width="140" height="26" as="geometry" />
        </mxCell>
        <mxCell id="NWaXI-73P_ARyc7S3DBA-1" value="from" style="text;strokeColor=none;fillColor=none;align=left;verticalAlign=top;spacingLeft=4;spacingRight=4;overflow=hidden;rotatable=0;points=[[0,0.5],[1,0.5]];portConstraint=eastwest;" parent="-_pgTqp3qG2hkj3o-jc9-28" vertex="1">
          <mxGeometry y="130" width="140" height="26" as="geometry" />
        </mxCell>
        <mxCell id="NWaXI-73P_ARyc7S3DBA-2" value="to" style="text;strokeColor=none;fillColor=none;align=left;verticalAlign=top;spacingLeft=4;spacingRight=4;overflow=hidden;rotatable=0;points=[[0,0.5],[1,0.5]];portConstraint=eastwest;" parent="-_pgTqp3qG2hkj3o-jc9-28" vertex="1">
          <mxGeometry y="156" width="140" height="26" as="geometry" />
        </mxCell>
        <mxCell id="NWaXI-73P_ARyc7S3DBA-3" value="color" style="text;strokeColor=none;fillColor=none;align=left;verticalAlign=top;spacingLeft=4;spacingRight=4;overflow=hidden;rotatable=0;points=[[0,0.5],[1,0.5]];portConstraint=eastwest;" parent="-_pgTqp3qG2hkj3o-jc9-28" vertex="1">
          <mxGeometry y="182" width="140" height="26" as="geometry" />
        </mxCell>
        <mxCell id="-_pgTqp3qG2hkj3o-jc9-37" value="" style="endArrow=block;endSize=16;endFill=0;html=1;exitX=0.5;exitY=0;exitDx=0;exitDy=0;entryX=0.5;entryY=1;entryDx=0;entryDy=0;" parent="1" target="-_pgTqp3qG2hkj3o-jc9-28" edge="1">
          <mxGeometry width="160" relative="1" as="geometry">
            <mxPoint x="790" y="250" as="sourcePoint" />
            <mxPoint x="890" y="450" as="targetPoint" />
          </mxGeometry>
        </mxCell>
        <mxCell id="-_pgTqp3qG2hkj3o-jc9-40" value="" style="endArrow=none;html=1;exitX=0.5;exitY=0;exitDx=0;exitDy=0;" parent="1" edge="1">
          <mxGeometry width="50" height="50" relative="1" as="geometry">
            <mxPoint x="950" y="250" as="sourcePoint" />
            <mxPoint x="790" y="180" as="targetPoint" />
            <Array as="points">
              <mxPoint x="950" y="190" />
              <mxPoint x="790" y="190" />
            </Array>
          </mxGeometry>
        </mxCell>
        <mxCell id="-_pgTqp3qG2hkj3o-jc9-43" value="" style="endArrow=none;html=1;exitX=0.5;exitY=0;exitDx=0;exitDy=0;" parent="1" edge="1">
          <mxGeometry width="50" height="50" relative="1" as="geometry">
            <mxPoint x="630" y="250" as="sourcePoint" />
            <mxPoint x="790" y="180" as="targetPoint" />
            <Array as="points">
              <mxPoint x="630" y="190" />
              <mxPoint x="790" y="190" />
            </Array>
          </mxGeometry>
        </mxCell>
        <mxCell id="-_pgTqp3qG2hkj3o-jc9-45" value="" style="endArrow=diamondThin;endFill=0;endSize=24;html=1;entryX=0;entryY=0.5;entryDx=0;entryDy=0;exitX=1;exitY=0.5;exitDx=0;exitDy=0;" parent="1" target="-_pgTqp3qG2hkj3o-jc9-30" edge="1">
          <mxGeometry width="160" relative="1" as="geometry">
            <mxPoint x="340" y="15" as="sourcePoint" />
            <mxPoint x="710" y="100" as="targetPoint" />
          </mxGeometry>
        </mxCell>
        <mxCell id="-_pgTqp3qG2hkj3o-jc9-49" value="0..M" style="text;html=1;strokeColor=none;fillColor=none;align=center;verticalAlign=middle;whiteSpace=wrap;rounded=0;" parent="1" vertex="1">
          <mxGeometry x="290" y="550" width="40" height="20" as="geometry" />
        </mxCell>
        <mxCell id="-_pgTqp3qG2hkj3o-jc9-52" value="" style="endArrow=none;html=1;exitX=0.5;exitY=0;exitDx=0;exitDy=0;" parent="1" edge="1">
          <mxGeometry width="50" height="50" relative="1" as="geometry">
            <mxPoint x="1110" y="250" as="sourcePoint" />
            <mxPoint x="940" y="190" as="targetPoint" />
            <Array as="points">
              <mxPoint x="1110" y="190" />
            </Array>
          </mxGeometry>
        </mxCell>
        <mxCell id="-_pgTqp3qG2hkj3o-jc9-53" value="Training result" style="swimlane;fontStyle=0;childLayout=stackLayout;horizontal=1;startSize=26;fillColor=none;horizontalStack=0;resizeParent=1;resizeParentMax=0;resizeLast=0;collapsible=1;marginBottom=0;" parent="1" vertex="1">
          <mxGeometry x="560" y="370" width="140" height="52" as="geometry" />
        </mxCell>
        <mxCell id="-_pgTqp3qG2hkj3o-jc9-57" value="" style="endArrow=none;html=1;entryX=0.5;entryY=1;entryDx=0;entryDy=0;exitX=0.5;exitY=0;exitDx=0;exitDy=0;" parent="1" source="-_pgTqp3qG2hkj3o-jc9-53" edge="1">
          <mxGeometry width="50" height="50" relative="1" as="geometry">
            <mxPoint x="790" y="510" as="sourcePoint" />
            <mxPoint x="630" y="302" as="targetPoint" />
          </mxGeometry>
        </mxCell>
        <mxCell id="-_pgTqp3qG2hkj3o-jc9-18" value="Team" style="swimlane;fontStyle=0;childLayout=stackLayout;horizontal=1;startSize=26;fillColor=none;horizontalStack=0;resizeParent=1;resizeParentMax=0;resizeLast=0;collapsible=1;marginBottom=0;" parent="1" vertex="1">
          <mxGeometry x="200" y="460" width="140" height="78" as="geometry" />
        </mxCell>
        <mxCell id="-_pgTqp3qG2hkj3o-jc9-19" value="name" style="text;strokeColor=none;fillColor=none;align=left;verticalAlign=top;spacingLeft=4;spacingRight=4;overflow=hidden;rotatable=0;points=[[0,0.5],[1,0.5]];portConstraint=eastwest;" parent="-_pgTqp3qG2hkj3o-jc9-18" vertex="1">
          <mxGeometry y="26" width="140" height="26" as="geometry" />
        </mxCell>
        <mxCell id="NWaXI-73P_ARyc7S3DBA-21" value="game" style="text;strokeColor=none;fillColor=none;align=left;verticalAlign=top;spacingLeft=4;spacingRight=4;overflow=hidden;rotatable=0;points=[[0,0.5],[1,0.5]];portConstraint=eastwest;" parent="-_pgTqp3qG2hkj3o-jc9-18" vertex="1">
          <mxGeometry y="52" width="140" height="26" as="geometry" />
        </mxCell>
        <mxCell id="-_pgTqp3qG2hkj3o-jc9-59" value="" style="endArrow=none;html=1;entryX=0.5;entryY=1;entryDx=0;entryDy=0;exitX=0.25;exitY=1;exitDx=0;exitDy=0;" parent="1" target="-_pgTqp3qG2hkj3o-jc9-53" edge="1">
          <mxGeometry width="50" height="50" relative="1" as="geometry">
            <mxPoint x="75" y="302" as="sourcePoint" />
            <mxPoint x="660" y="590" as="targetPoint" />
            <Array as="points">
              <mxPoint x="75" y="610" />
              <mxPoint x="630" y="610" />
            </Array>
          </mxGeometry>
        </mxCell>
        <mxCell id="-_pgTqp3qG2hkj3o-jc9-60" value="0..M" style="text;html=1;strokeColor=none;fillColor=none;align=center;verticalAlign=middle;whiteSpace=wrap;rounded=0;" parent="1" vertex="1">
          <mxGeometry x="640" y="425" width="40" height="20" as="geometry" />
        </mxCell>
        <mxCell id="-_pgTqp3qG2hkj3o-jc9-61" value="0..N" style="text;html=1;strokeColor=none;fillColor=none;align=center;verticalAlign=middle;whiteSpace=wrap;rounded=0;" parent="1" vertex="1">
          <mxGeometry x="70" y="310" width="40" height="20" as="geometry" />
        </mxCell>
        <mxCell id="-_pgTqp3qG2hkj3o-jc9-66" value="" style="endArrow=none;html=1;exitX=0.5;exitY=0;exitDx=0;exitDy=0;" parent="1" source="-_pgTqp3qG2hkj3o-jc9-62" edge="1">
          <mxGeometry width="50" height="50" relative="1" as="geometry">
            <mxPoint x="150" y="700" as="sourcePoint" />
            <mxPoint x="290" y="610" as="targetPoint" />
          </mxGeometry>
        </mxCell>
        <mxCell id="-_pgTqp3qG2hkj3o-jc9-69" value="0..M" style="text;html=1;strokeColor=none;fillColor=none;align=center;verticalAlign=middle;whiteSpace=wrap;rounded=0;" parent="1" vertex="1">
          <mxGeometry x="790" y="476" width="40" height="20" as="geometry" />
        </mxCell>
        <mxCell id="-_pgTqp3qG2hkj3o-jc9-70" value="" style="endArrow=none;html=1;exitX=0.5;exitY=0;exitDx=0;exitDy=0;entryX=0.5;entryY=1.022;entryDx=0;entryDy=0;entryPerimeter=0;" parent="1" target="ADOGvdhmfN3bZAimNRa--6" edge="1">
          <mxGeometry width="50" height="50" relative="1" as="geometry">
            <mxPoint x="790" y="370" as="sourcePoint" />
            <mxPoint x="820" y="350" as="targetPoint" />
          </mxGeometry>
        </mxCell>
        <mxCell id="-_pgTqp3qG2hkj3o-jc9-71" value="" style="endArrow=none;html=1;entryX=1;entryY=0.5;entryDx=0;entryDy=0;exitX=0.5;exitY=1;exitDx=0;exitDy=0;" parent="1" source="ADOGvdhmfN3bZAimNRa--12" edge="1">
          <mxGeometry width="50" height="50" relative="1" as="geometry">
            <mxPoint x="950" y="303.326" as="sourcePoint" />
            <mxPoint x="860" y="396" as="targetPoint" />
            <Array as="points">
              <mxPoint x="950" y="396" />
            </Array>
          </mxGeometry>
        </mxCell>
        <mxCell id="-_pgTqp3qG2hkj3o-jc9-72" value="0..N" style="text;html=1;strokeColor=none;fillColor=none;align=center;verticalAlign=middle;whiteSpace=wrap;rounded=0;" parent="1" vertex="1">
          <mxGeometry x="870" y="370" width="40" height="20" as="geometry" />
        </mxCell>
        <mxCell id="-_pgTqp3qG2hkj3o-jc9-73" value="1" style="text;html=1;strokeColor=none;fillColor=none;align=center;verticalAlign=middle;whiteSpace=wrap;rounded=0;" parent="1" vertex="1">
          <mxGeometry x="950" y="330" width="40" height="20" as="geometry" />
        </mxCell>
        <mxCell id="-_pgTqp3qG2hkj3o-jc9-74" value="" style="endArrow=none;html=1;entryX=0.496;entryY=1.002;entryDx=0;entryDy=0;entryPerimeter=0;" parent="1" target="NWaXI-73P_ARyc7S3DBA-20" edge="1">
          <mxGeometry width="50" height="50" relative="1" as="geometry">
            <mxPoint x="50" y="302" as="sourcePoint" />
            <mxPoint x="790" y="422" as="targetPoint" />
            <Array as="points">
              <mxPoint x="50" y="760" />
              <mxPoint x="790" y="760" />
            </Array>
          </mxGeometry>
        </mxCell>
        <mxCell id="-_pgTqp3qG2hkj3o-jc9-75" value="0..N" style="text;html=1;strokeColor=none;fillColor=none;align=center;verticalAlign=middle;whiteSpace=wrap;rounded=0;" parent="1" vertex="1">
          <mxGeometry x="10" y="310" width="40" height="20" as="geometry" />
        </mxCell>
        <mxCell id="-_pgTqp3qG2hkj3o-jc9-62" value="Training to Player" style="swimlane;fontStyle=0;childLayout=stackLayout;horizontal=1;startSize=26;fillColor=none;horizontalStack=0;resizeParent=1;resizeParentMax=0;resizeLast=0;collapsible=1;marginBottom=0;" parent="1" vertex="1">
          <mxGeometry x="220" y="630" width="140" height="104" as="geometry" />
        </mxCell>
        <mxCell id="-_pgTqp3qG2hkj3o-jc9-63" value="accuracy" style="text;strokeColor=none;fillColor=none;align=left;verticalAlign=top;spacingLeft=4;spacingRight=4;overflow=hidden;rotatable=0;points=[[0,0.5],[1,0.5]];portConstraint=eastwest;" parent="-_pgTqp3qG2hkj3o-jc9-62" vertex="1">
          <mxGeometry y="26" width="140" height="26" as="geometry" />
        </mxCell>
        <mxCell id="NWaXI-73P_ARyc7S3DBA-16" value="speed" style="text;strokeColor=none;fillColor=none;align=left;verticalAlign=top;spacingLeft=4;spacingRight=4;overflow=hidden;rotatable=0;points=[[0,0.5],[1,0.5]];portConstraint=eastwest;" parent="-_pgTqp3qG2hkj3o-jc9-62" vertex="1">
          <mxGeometry y="52" width="140" height="26" as="geometry" />
        </mxCell>
        <mxCell id="-_pgTqp3qG2hkj3o-jc9-67" value="reaction time" style="text;strokeColor=none;fillColor=none;align=left;verticalAlign=top;spacingLeft=4;spacingRight=4;overflow=hidden;rotatable=0;points=[[0,0.5],[1,0.5]];portConstraint=eastwest;" parent="-_pgTqp3qG2hkj3o-jc9-62" vertex="1">
          <mxGeometry y="78" width="140" height="26" as="geometry" />
        </mxCell>
        <mxCell id="-_pgTqp3qG2hkj3o-jc9-76" value="Match to Player" style="swimlane;fontStyle=0;childLayout=stackLayout;horizontal=1;startSize=26;fillColor=none;horizontalStack=0;resizeParent=1;resizeParentMax=0;resizeLast=0;collapsible=1;marginBottom=0;" parent="1" vertex="1">
          <mxGeometry x="400" y="630" width="140" height="104" as="geometry" />
        </mxCell>
        <mxCell id="-_pgTqp3qG2hkj3o-jc9-77" value="kills" style="text;strokeColor=none;fillColor=none;align=left;verticalAlign=top;spacingLeft=4;spacingRight=4;overflow=hidden;rotatable=0;points=[[0,0.5],[1,0.5]];portConstraint=eastwest;" parent="-_pgTqp3qG2hkj3o-jc9-76" vertex="1">
          <mxGeometry y="26" width="140" height="26" as="geometry" />
        </mxCell>
        <mxCell id="-_pgTqp3qG2hkj3o-jc9-80" value="deaths" style="text;strokeColor=none;fillColor=none;align=left;verticalAlign=top;spacingLeft=4;spacingRight=4;overflow=hidden;rotatable=0;points=[[0,0.5],[1,0.5]];portConstraint=eastwest;" parent="-_pgTqp3qG2hkj3o-jc9-76" vertex="1">
          <mxGeometry y="52" width="140" height="26" as="geometry" />
        </mxCell>
        <mxCell id="-_pgTqp3qG2hkj3o-jc9-81" value="assists" style="text;strokeColor=none;fillColor=none;align=left;verticalAlign=top;spacingLeft=4;spacingRight=4;overflow=hidden;rotatable=0;points=[[0,0.5],[1,0.5]];portConstraint=eastwest;" parent="-_pgTqp3qG2hkj3o-jc9-76" vertex="1">
          <mxGeometry y="78" width="140" height="26" as="geometry" />
        </mxCell>
        <mxCell id="-_pgTqp3qG2hkj3o-jc9-79" value="" style="endArrow=none;html=1;entryX=0.5;entryY=1;entryDx=0;entryDy=0;" parent="1" target="-_pgTqp3qG2hkj3o-jc9-76" edge="1">
          <mxGeometry width="50" height="50" relative="1" as="geometry">
            <mxPoint x="470" y="760" as="sourcePoint" />
            <mxPoint x="490" y="750" as="targetPoint" />
          </mxGeometry>
        </mxCell>
        <mxCell id="-_pgTqp3qG2hkj3o-jc9-85" value="Custom event" style="swimlane;fontStyle=0;childLayout=stackLayout;horizontal=1;startSize=26;fillColor=none;horizontalStack=0;resizeParent=1;resizeParentMax=0;resizeLast=0;collapsible=1;marginBottom=0;" parent="1" vertex="1">
          <mxGeometry x="1040" y="250" width="140" height="52" as="geometry" />
        </mxCell>
        <mxCell id="-_pgTqp3qG2hkj3o-jc9-86" value="type: &quot;custom&quot;" style="text;strokeColor=none;fillColor=none;align=left;verticalAlign=top;spacingLeft=4;spacingRight=4;overflow=hidden;rotatable=0;points=[[0,0.5],[1,0.5]];portConstraint=eastwest;" parent="-_pgTqp3qG2hkj3o-jc9-85" vertex="1">
          <mxGeometry y="26" width="140" height="26" as="geometry" />
        </mxCell>
        <mxCell id="NWaXI-73P_ARyc7S3DBA-5" value="Player" style="swimlane;fontStyle=0;childLayout=stackLayout;horizontal=1;startSize=26;fillColor=none;horizontalStack=0;resizeParent=1;resizeParentMax=0;resizeLast=0;collapsible=1;marginBottom=0;" parent="1" vertex="1">
          <mxGeometry x="40" y="250" width="140" height="52" as="geometry" />
        </mxCell>
        <mxCell id="NWaXI-73P_ARyc7S3DBA-6" value="role: &quot;player&quot;" style="text;strokeColor=none;fillColor=none;align=left;verticalAlign=top;spacingLeft=4;spacingRight=4;overflow=hidden;rotatable=0;points=[[0,0.5],[1,0.5]];portConstraint=eastwest;" parent="NWaXI-73P_ARyc7S3DBA-5" vertex="1">
          <mxGeometry y="26" width="140" height="26" as="geometry" />
        </mxCell>
        <mxCell id="NWaXI-73P_ARyc7S3DBA-9" value="Coach" style="swimlane;fontStyle=0;childLayout=stackLayout;horizontal=1;startSize=26;fillColor=none;horizontalStack=0;resizeParent=1;resizeParentMax=0;resizeLast=0;collapsible=1;marginBottom=0;" parent="1" vertex="1">
          <mxGeometry x="200" y="250" width="140" height="52" as="geometry" />
        </mxCell>
        <mxCell id="NWaXI-73P_ARyc7S3DBA-10" value="role: &quot;coach&quot;" style="text;strokeColor=none;fillColor=none;align=left;verticalAlign=top;spacingLeft=4;spacingRight=4;overflow=hidden;rotatable=0;points=[[0,0.5],[1,0.5]];portConstraint=eastwest;" parent="NWaXI-73P_ARyc7S3DBA-9" vertex="1">
          <mxGeometry y="26" width="140" height="26" as="geometry" />
        </mxCell>
        <mxCell id="NWaXI-73P_ARyc7S3DBA-11" value="Manager" style="swimlane;fontStyle=0;childLayout=stackLayout;horizontal=1;startSize=26;fillColor=none;horizontalStack=0;resizeParent=1;resizeParentMax=0;resizeLast=0;collapsible=1;marginBottom=0;" parent="1" vertex="1">
          <mxGeometry x="360" y="250" width="140" height="52" as="geometry" />
        </mxCell>
        <mxCell id="NWaXI-73P_ARyc7S3DBA-12" value="role: &quot;manager&quot;" style="text;strokeColor=none;fillColor=none;align=left;verticalAlign=top;spacingLeft=4;spacingRight=4;overflow=hidden;rotatable=0;points=[[0,0.5],[1,0.5]];portConstraint=eastwest;" parent="NWaXI-73P_ARyc7S3DBA-11" vertex="1">
          <mxGeometry y="26" width="140" height="26" as="geometry" />
        </mxCell>
        <mxCell id="NWaXI-73P_ARyc7S3DBA-17" value="Match score" style="swimlane;fontStyle=0;childLayout=stackLayout;horizontal=1;startSize=26;fillColor=none;horizontalStack=0;resizeParent=1;resizeParentMax=0;resizeLast=0;collapsible=1;marginBottom=0;" parent="1" vertex="1">
          <mxGeometry x="720" y="370" width="140" height="104" as="geometry" />
        </mxCell>
        <mxCell id="NWaXI-73P_ARyc7S3DBA-18" value="map" style="text;strokeColor=none;fillColor=none;align=left;verticalAlign=top;spacingLeft=4;spacingRight=4;overflow=hidden;rotatable=0;points=[[0,0.5],[1,0.5]];portConstraint=eastwest;" parent="NWaXI-73P_ARyc7S3DBA-17" vertex="1">
          <mxGeometry y="26" width="140" height="26" as="geometry" />
        </mxCell>
        <mxCell id="NWaXI-73P_ARyc7S3DBA-19" value="our score" style="text;strokeColor=none;fillColor=none;align=left;verticalAlign=top;spacingLeft=4;spacingRight=4;overflow=hidden;rotatable=0;points=[[0,0.5],[1,0.5]];portConstraint=eastwest;" parent="NWaXI-73P_ARyc7S3DBA-17" vertex="1">
          <mxGeometry y="52" width="140" height="26" as="geometry" />
        </mxCell>
        <mxCell id="NWaXI-73P_ARyc7S3DBA-20" value="enemy score" style="text;strokeColor=none;fillColor=none;align=left;verticalAlign=top;spacingLeft=4;spacingRight=4;overflow=hidden;rotatable=0;points=[[0,0.5],[1,0.5]];portConstraint=eastwest;" parent="NWaXI-73P_ARyc7S3DBA-17" vertex="1">
          <mxGeometry y="78" width="140" height="26" as="geometry" />
        </mxCell>
        <mxCell id="ADOGvdhmfN3bZAimNRa--2" value="Training" style="swimlane;fontStyle=0;childLayout=stackLayout;horizontal=1;startSize=26;fillColor=none;horizontalStack=0;resizeParent=1;resizeParentMax=0;resizeLast=0;collapsible=1;marginBottom=0;" vertex="1" parent="1">
          <mxGeometry x="560" y="250" width="140" height="52" as="geometry" />
        </mxCell>
        <mxCell id="ADOGvdhmfN3bZAimNRa--3" value="type: &quot;training&quot;" style="text;strokeColor=none;fillColor=none;align=left;verticalAlign=top;spacingLeft=4;spacingRight=4;overflow=hidden;rotatable=0;points=[[0,0.5],[1,0.5]];portConstraint=eastwest;" vertex="1" parent="ADOGvdhmfN3bZAimNRa--2">
          <mxGeometry y="26" width="140" height="26" as="geometry" />
        </mxCell>
        <mxCell id="ADOGvdhmfN3bZAimNRa--4" value="Match" style="swimlane;fontStyle=0;childLayout=stackLayout;horizontal=1;startSize=26;fillColor=none;horizontalStack=0;resizeParent=1;resizeParentMax=0;resizeLast=0;collapsible=1;marginBottom=0;" vertex="1" parent="1">
          <mxGeometry x="720" y="250" width="140" height="78" as="geometry" />
        </mxCell>
        <mxCell id="ADOGvdhmfN3bZAimNRa--5" value="type: &quot;match&quot;" style="text;strokeColor=none;fillColor=none;align=left;verticalAlign=top;spacingLeft=4;spacingRight=4;overflow=hidden;rotatable=0;points=[[0,0.5],[1,0.5]];portConstraint=eastwest;" vertex="1" parent="ADOGvdhmfN3bZAimNRa--4">
          <mxGeometry y="26" width="140" height="26" as="geometry" />
        </mxCell>
        <mxCell id="ADOGvdhmfN3bZAimNRa--6" value="server" style="text;strokeColor=none;fillColor=none;align=left;verticalAlign=top;spacingLeft=4;spacingRight=4;overflow=hidden;rotatable=0;points=[[0,0.5],[1,0.5]];portConstraint=eastwest;" vertex="1" parent="ADOGvdhmfN3bZAimNRa--4">
          <mxGeometry y="52" width="140" height="26" as="geometry" />
        </mxCell>
        <mxCell id="ADOGvdhmfN3bZAimNRa--17" value="" style="endArrow=diamondThin;endFill=0;endSize=24;html=1;entryX=0;entryY=0.5;entryDx=0;entryDy=0;exitX=0.498;exitY=1.001;exitDx=0;exitDy=0;exitPerimeter=0;" edge="1" parent="1" source="NWaXI-73P_ARyc7S3DBA-21">
          <mxGeometry width="160" relative="1" as="geometry">
            <mxPoint x="340" y="53.5" as="sourcePoint" />
            <mxPoint x="720" y="53.5" as="targetPoint" />
            <Array as="points">
              <mxPoint x="270" y="570" />
              <mxPoint x="530" y="570" />
              <mxPoint x="530" y="54" />
            </Array>
          </mxGeometry>
        </mxCell>
        <mxCell id="ADOGvdhmfN3bZAimNRa--18" value="0..M" style="text;html=1;strokeColor=none;fillColor=none;align=center;verticalAlign=middle;whiteSpace=wrap;rounded=0;" vertex="1" parent="1">
          <mxGeometry x="340" y="-10" width="40" height="20" as="geometry" />
        </mxCell>
        <mxCell id="ADOGvdhmfN3bZAimNRa--19" value="participants" style="text;html=1;strokeColor=none;fillColor=none;align=center;verticalAlign=middle;whiteSpace=wrap;rounded=0;" vertex="1" parent="1">
          <mxGeometry x="600" y="28" width="40" height="20" as="geometry" />
        </mxCell>
      </root>
    </mxGraphModel>
  </diagram>
</mxfile>
